# xmcd
#
# Track frame offsets:
#	150
#	16374
#	34516
#	52364
#	70511
#	90720
#	115988
#	131324
#	143019
#	157538
#	172775
# Disc length: 2533 seconds
# Revision: 1
# Processed by: cddbd v1.5.2PL0 Copyright (c) Steve Scherf et al.
#
# Submitted via: libkcddb 0.31
#
DISCID=7f09e30b
DTITLE=Big Dez - Lazy Star
DYEAR=2011
DGENRE=Blues
TTITLE0=Lazy Star
TTITLE1=Another Ride
TTITLE2=Lucky Devil
TTITLE3=Top Of Your Game
TTITLE4=Entertain Me
TTITLE5=Take Me To South Carolina
TTITLE6=The Cashier Is Gone
TTITLE7=Her Own Way
TTITLE8=The Rewind
TTITLE9=One Buck
TTITLE10=Nightmare Dreamer
EXTD=
EXTT0=
EXTT1=
EXTT2=
EXTT3=
EXTT4=
EXTT5=
EXTT6=
EXTT7=
EXTT8=
EXTT9=
EXTT10=
PLAYORDER=
